<?xml version="1.0" encoding="UTF-8"?>
<svg id="Layer_1" data-name="Layer 1" xmlns="http://www.w3.org/2000/svg" version="1.1" viewBox="0 0 513.8 137.2">
  <defs>
    <style>
      .cls-1 {
        fill: #23745b;
      }

      .cls-1, .cls-2 {
        stroke-width: 0px;
      }

      .cls-2 {
        fill: #38af8e;
      }
    </style>
  </defs>
  <g>
    <path class="cls-2" d="M436,.4c8.2,0,16.3,0,24.5,0,2.3,0,3.8.7,5,2.7,6.5,10.9,13.1,21.8,19.6,32.7,2,3.4,1.6,5.1-1.8,7.2-8,4.9-16,9.7-24,14.5-3.2,1.9-5.3,1.2-7.3-2-6-10.1-12.1-20.2-18.1-30.2-2.1-3.4-4-3.8-7.5-1.8-3.3,2-6.7,3.9-10,6-3.7,2.3-3.6,5.9.1,8.2,3.5,2.1,7.1,4.3,10.6,6.4,2,1.2,3,2.7,2.4,5-.6,2.3-2.2,3.4-4.5,3.4-8.2,0-16.3,0-24.5,0-1,0-2.1-.4-3-.9-3.7-2.1-7.3-4.2-10.9-6.5-2.8-1.7-3.3-3.7-1.6-6.5,7.1-12,14.3-23.9,21.4-35.9,1.1-1.8,2.5-2.2,4.4-2.2,8.3,0,16.7,0,25,0,0,0,0,0,0,0Z"/>
    <path class="cls-2" d="M463.3,136.8c-6.4,0-12.8,0-19.1,0-3.7,0-5.1-1.4-5.1-5.1,0-9.4,0-18.8,0-28.2,0-3.4,1.8-5.1,5.3-5.1,11.9,0,23.7,0,35.6,0,3.6,0,5.3-1.7,5.3-5.3,0-3.8,0-7.6,0-11.4,0-4.6-3.4-6.5-7.4-4.3-3.5,1.9-7,3.7-10.5,5.6-2.1,1.1-4.1,1.3-5.9-.4-1.8-1.8-1.4-3.8-.2-5.8,4.2-7,8.1-14.1,12.7-20.8,1.5-2.2,4.6-3.3,7.1-4.8,1.8-1.1,3.7-2,5.6-3,3.2-1.7,5.3-1.2,7.1,2,5.3,9.7,10.4,19.5,15.6,29.2,1.2,2.3,2.5,4.7,3.8,7,1.1,1.9,1,3.7-.1,5.5-8.5,14.1-17,28.2-25.5,42.4-1.1,1.9-2.6,2.7-4.8,2.6-6.5,0-12.9,0-19.4,0,0,0,0,0,0,0Z"/>
    <path class="cls-2" d="M408.1,136.8c-6.7,0-13.5,0-20.2,0-2.3,0-3.8-.7-5-2.7-8.4-14.2-16.9-28.4-25.3-42.5-1-1.7-1.1-3.4-.1-5.3,6.2-11.5,12.3-23.1,18.4-34.6,1.2-2.3,3.8-3,6.2-1.8,8.7,4.6,17.3,9.2,25.9,13.9,2.7,1.5,3.2,3.9,1.3,7.3-4.3,8-8.6,16-12.9,24.1-1.4,2.6-2.6,5.2-4,7.8-1.3,2.3-.6,4.2,1.4,5.4,4.1,2.4,8.3,4.7,12.5,6.8,2.9,1.4,5.9-.8,6-4.2,0-4.3,0-8.7,0-13,0-2.4.9-4,3.1-4.7,2.2-.7,3.9.3,5.1,2.3,4.1,6.9,8.3,13.8,12.4,20.7.5.9,1,2,1,3,0,4.7,0,9.4-.1,14.1-.1,2.3-1.7,3.6-4.1,3.6-7.2,0-14.4,0-21.5,0Z"/>
    <path class="cls-2" d="M447,74c0,6.3-4.6,11.1-10.6,11.1-6.5,0-11.2-4.7-11.2-11.1,0-6.2,4.7-10.5,10.9-10.8,5.9-.3,11.6,5.7,10.9,10.9Z"/>
  </g>
  <g>
    <g>
      <path class="cls-1" d="M187.8,136.6v-47.9c8.7.3,17.4-1.3,25.8,1.7,6.4,2.4,10.4,7.1,11.9,13.8,1.5,6.5,1.4,12.9-1.2,19-3.6,8.4-10.7,12.3-19.3,13.2-5.6.6-11.3.1-17.2.1ZM199.9,131.4c7.4,0,14-1.9,17.5-9,2.7-5.6,2.4-11.6.8-17.6-1.5-5.7-5.6-9-11.1-10.1-3.4-.7-7-.5-10.5-.7-1.9-.1-2.6.6-2.5,2.7.1,9.6,0,19.1,0,28.7q0,5.9,5.9,6Z"/>
      <path class="cls-1" d="M163.1,115.2c5.2,7.2,10.2,14.1,15.5,21.5-2.9,0-5.1.1-7.2,0-.8,0-1.6-.9-2.1-1.7-4.1-5.8-8.2-11.5-12.1-17.4-1.2-1.7-2.5-2-4.5-1.3,0,5.5,0,10.9,0,16.4q0,4.1-4.2,4.1c-.7,0-1.4-.1-2.2-.2,0-1-.1-1.9-.1-2.7,0-14,0-28,0-42,0-2.4.6-3.3,3.1-3.2,5,.3,10.1,0,15.1.6,6.9.7,11,5.3,11.2,11.9.2,6.6-3.9,12.1-10.3,13.6-.5.1-1,.2-2,.4ZM152.6,94.1c0,3,0,5.8,0,8.6,0,9.5.2,9.7,9.7,7.8,3-.6,5.4-3.1,6-6.3.7-3.5-.4-6.7-3-8.4-3.8-2.5-8.1-1.8-12.6-1.7Z"/>
      <path class="cls-1" d="M73.3,109.1v-20.4c1.8,0,3.5-.1,5.1,0,.6,0,1.5,1,1.5,1.6,0,15.2,0,30.5-.1,45.7,0,0,0,.1-.3.4h-6.1v-21.6h-24.4v21.6h-6.4c0-1-.1-1.9-.1-2.8,0-14.1,0-28.2,0-42.3,0-2.6,1-2.9,3.1-2.8,1.9,0,3.7-.3,3.5,2.7-.2,5,0,10.1,0,15.2,0,1.9.4,2.7,2.5,2.6,7.2-.1,14.3,0,21.8,0Z"/>
      <path class="cls-1" d="M310.6,108.9v-20h6.1v47.6h-6.2v-21.6h-24.5v21.6h-6.6c0-1,0-2,0-2.9,0-13.7,0-27.5,0-41.2q0-3.7,3.8-3.7c.8,0,1.6,0,2.6,0v20.2h24.7Z"/>
      <path class="cls-1" d="M271.3,136.4c-.5.1-.7.3-1,.3q-6.1.5-8-5.2c-.7-2-1.3-4-2-6.1-6.4,0-12.6,0-18.9,0-.7,0-1.7,1-2,1.8-.9,2.2-1.7,4.5-2.3,6.8-.5,2.1-1.6,2.9-3.8,2.7-1.1-.1-2.3,0-3.9,0,.6-1.9,1.1-3.5,1.6-5,4.9-13.6,9.8-27.3,14.6-40.9.5-1.5,1.2-2.1,2.9-2.1,7.2.2,5.4-1.2,7.7,5.3,4.7,12.9,9.2,25.8,13.8,38.6.4,1.2.8,2.5,1.2,3.7ZM258.7,120c-2.9-8.2-5.6-16-8.6-24.5-3,8.6-5.7,16.4-8.5,24.5h17.1Z"/>
      <path class="cls-1" d="M6.3,114v22.5H0v-47.7c1.7,0,3.4-.2,5,0,.5,0,1.2,1.3,1.3,2,.1,5.7,0,11.3,0,17,0,.9,0,1.7,0,3.4,2.2-2.5,3.9-4.5,5.5-6.5,3.8-4.5,7.6-8.8,11.2-13.4,1.6-2,3.3-3,5.9-2.7,1.3.2,2.6,0,4.6,0-3.4,3.8-6.2,7.1-9,10.3-3.3,3.8-6.6,7.6-10,11.4-1.2,1.3-1,2.1,0,3.4,5.9,6.8,11.7,13.7,17.5,20.6.5.6.9,1.2,1.7,2.4-3,0-5.5.1-8,0-.8,0-1.6-1-2.2-1.7-5.6-7-11.2-14.1-16.9-21.1-.2,0-.4.1-.5.2Z"/>
      <path class="cls-1" d="M94.7,88.8h6.2c0,1,.1,2.1.1,3.1,0,9.7,0,19.5,0,29.2,0,4.3,1.4,8,5.8,9.9,5.4,2.3,13.4,1,16-3.2,1.2-2,2-4.6,2-6.9.2-9.8.2-19.7,0-29.5,0-2.8,1.3-2.8,3.2-2.7,1.8,0,3.4-.4,3.4,2.5-.2,9.7.1,19.3-.2,29-.4,10.9-6.2,16.6-17.2,16.9-3.4,0-6.9-.3-10.2-1.1-5.8-1.4-9-5.8-9.2-11.4-.4-11.8-.1-23.7-.1-35.9Z"/>
    </g>
    <g>
      <path class="cls-1" d="M94.7,78.7v-6.3c2.2-.8,4.3-1.2,6-2.3,3.8-2.5,4.4-6.7,4.4-10.8.1-13.2,0-26.4,0-39.6,0-1,0-1.9,0-3.2,2.4,0,4.5-.2,6.6.1.5,0,1.3,1.4,1.3,2.2,0,9.5,0,19,0,28.5,0,.9,0,1.7,0,2.8h195.1c1.4-8.2,2.6-16.5-4.1-23.1-6.7-6.6-15.2-4.9-23.6-3.6v-6.2c6.5-.8,12.9-1.7,19.4-.2,10.9,2.4,16.2,9.6,16.8,19.7.4,6.4-.4,12.9-.7,19.6-1.4,0-2.5.2-3.7.2-65,0-129.9,0-194.9,0,0,0-.2,0-.3,0-3.8,0-3.7,0-4.1,3.7-.7,6.4-2.3,12.6-8.7,15.7-2.9,1.4-6.2,1.9-9.7,3Z"/>
      <path class="cls-1" d="M39.3,56.8c-9.2-.5-18-.5-26.7-1.7C4.9,54,.3,47.4-.1,39.6c-.3-5.9.3-11.5,4-16.3,4.7-6.1,11.1-7.9,18.5-7.6,6.2.2,11.6,2.2,14.4,8.1,1.3,2.7,2.2,5.9,2.3,8.9.3,7.1.1,14.2.1,21.2,0,.7,0,1.4,0,3ZM31.5,50.8c0-5.7,0-10.5,0-15.2,0-1.3,0-2.7-.3-4-1.5-9.2-10.9-13-18.5-7.5-6.2,4.5-7,17.4-1.3,22.6,1.1,1,2.5,2,3.8,2.2,5.2.8,10.5,1.2,16.2,1.8Z"/>
      <path class="cls-1" d="M58.7,15.1c19.3,5.4,28.2,17.5,26.9,41.1h-34.4c0-.1-.3-.3-.3-.6q-.6-5.4,4.9-5.4c6.6,0,13.3,0,19.9,0,1.7,0,2.3-.4,2.2-2.3-.5-12.4-6.2-21.1-18.1-25.3-3.4-1.2-3.3-1.3-2.1-4.7.3-.9.7-1.8,1.1-2.8Z"/>
      <path class="cls-1" d="M298.3,4.8c0,2.5-2.2,4.7-4.7,4.6-2.4,0-4.4-2.2-4.5-4.6,0-2.6,2.1-4.8,4.6-4.8,2.5,0,4.6,2.2,4.6,4.8Z"/>
      <path class="cls-1" d="M18,4.5c0,2.7-1.5,4.4-4.1,4.5-2.9,0-4.5-1.5-4.5-4.3,0-2.6,1.7-4.3,4.2-4.4,2.6,0,4.3,1.6,4.4,4.2Z"/>
      <path class="cls-1" d="M26.1.3c2.6,0,4.3,1.8,4.3,4.3,0,2.6-1.9,4.4-4.6,4.3-2.6,0-4.2-1.9-4.2-4.5,0-2.5,1.9-4.3,4.4-4.2Z"/>
    </g>
  </g>
</svg>